<svg width="32" height="32" viewBox="0 0 32 32" fill="none" xmlns="http://www.w3.org/2000/svg">
<rect width="32" height="32" rx="8" fill="#F5A633" fill-opacity="0.08"/>
<path fill-rule="evenodd" clip-rule="evenodd" d="M20.1162 8.5C21.2337 8.5 22.3087 8.94167 23.0995 9.73417C23.8912 10.525 24.3337 11.5917 24.3337 12.7083V19.2917C24.3337 21.6167 22.442 23.5 20.1162 23.5H11.8837C9.55783 23.5 7.66699 21.6167 7.66699 19.2917V12.7083C7.66699 10.3833 9.54949 8.5 11.8837 8.5H20.1162ZM21.442 13.95L21.5087 13.8833C21.7078 13.6417 21.7078 13.2917 21.4995 13.05C21.3837 12.9258 21.2245 12.85 21.0587 12.8333C20.8837 12.8242 20.717 12.8833 20.5912 13L16.8337 16C16.3503 16.4008 15.6578 16.4008 15.167 16L11.417 13C11.1578 12.8083 10.7995 12.8333 10.5837 13.0583C10.3587 13.2833 10.3337 13.6417 10.5245 13.8917L10.6337 14L14.4253 16.9583C14.892 17.325 15.4578 17.525 16.0503 17.525C16.6412 17.525 17.217 17.325 17.6828 16.9583L21.442 13.95Z" fill="#F5A633"/>
</svg>
