<svg width="32" height="32" viewBox="0 0 32 32" fill="none" xmlns="http://www.w3.org/2000/svg">
<rect width="32" height="32" rx="8" fill="#F5A633" fill-opacity="0.08"/>
<path fill-rule="evenodd" clip-rule="evenodd" d="M20.5333 11.197C20.5667 11.2553 20.625 11.2969 20.7 11.2969C22.7 11.2969 24.3333 12.9284 24.3333 14.9262V19.8707C24.3333 21.8685 22.7 23.5 20.7 23.5H11.3C9.29167 23.5 7.66667 21.8685 7.66667 19.8707V14.9262C7.66667 12.9284 9.29167 11.2969 11.3 11.2969C11.3667 11.2969 11.4333 11.2636 11.4583 11.197L11.5083 11.0971C11.5371 11.0366 11.5666 10.9745 11.5965 10.9115C11.8097 10.4625 12.0455 9.96567 12.1917 9.6737C12.575 8.92453 13.225 8.50832 14.0333 8.5H17.9583C18.7667 8.50832 19.425 8.92453 19.8083 9.6737C19.9396 9.93592 20.1396 10.3583 20.3323 10.7654C20.3721 10.8494 20.4115 10.9327 20.45 11.0139L20.5333 11.197ZM19.925 14.3934C19.925 14.8096 20.2583 15.1426 20.675 15.1426C21.0917 15.1426 21.4333 14.8096 21.4333 14.3934C21.4333 13.9772 21.0917 13.636 20.675 13.636C20.2583 13.636 19.925 13.9772 19.925 14.3934ZM14.5583 15.6837C14.95 15.2924 15.4583 15.0843 16 15.0843C16.5417 15.0843 17.05 15.2924 17.4333 15.6754C17.8167 16.0583 18.025 16.566 18.025 17.1071C18.0167 18.2225 17.1167 19.1299 16 19.1299C15.4583 19.1299 14.95 18.9217 14.5667 18.5388C14.1833 18.1559 13.975 17.6482 13.975 17.1071V17.0988C13.9667 16.5744 14.175 16.0666 14.5583 15.6837ZM18.3083 19.4212C17.7167 20.0122 16.9 20.3785 16 20.3785C15.125 20.3785 14.3083 20.0372 13.6833 19.4212C13.0667 18.7969 12.725 17.9811 12.725 17.1071C12.7167 16.2414 13.0583 15.4256 13.675 14.8013C14.3 14.177 15.125 13.8357 16 13.8357C16.875 13.8357 17.7 14.177 18.3167 14.793C18.9333 15.4173 19.275 16.2414 19.275 17.1071C19.2667 18.0144 18.9 18.8302 18.3083 19.4212Z" fill="#EB5757"/>
</svg>
