<svg width="33" height="33" viewBox="0 0 33 33" fill="none" xmlns="http://www.w3.org/2000/svg">
<g clip-path="url(#clip0_899:46)">
<path d="M22.275 9.90152L6.6506 10.8393C6.03462 10.8775 5.44538 11.1046 4.96322 11.4898C4.48106 11.8751 4.12944 12.3996 3.9563 12.992C3.78317 13.5844 3.79694 14.2158 3.99575 14.8C4.19455 15.3843 4.56871 15.893 5.06722 16.2568L9.83068 19.7074C9.94276 19.7926 10.0367 19.8993 10.1071 20.0212C10.1775 20.1431 10.2229 20.2779 10.2407 20.4175L10.8472 26.2681C10.8995 26.7653 11.0752 27.2415 11.3584 27.6535C11.6415 28.0655 12.0232 28.4002 12.4686 28.6272C12.914 28.8542 13.4091 28.9663 13.9088 28.9533C14.4085 28.9403 14.8971 28.8026 15.3301 28.5527C15.7333 28.3146 16.0781 27.9892 16.3393 27.6006L24.9636 14.5384C25.2688 14.0738 25.4388 13.5335 25.4548 12.9778C25.4708 12.4222 25.3321 11.873 25.0541 11.3916C24.7762 10.9101 24.3699 10.5154 23.8807 10.2514C23.3915 9.98744 22.8386 9.86457 22.2836 9.89652L22.275 9.90152ZM23.2892 13.4382L14.6648 26.5004C14.5498 26.6688 14.386 26.7979 14.1954 26.8706C14.0049 26.9432 13.7966 26.9558 13.5987 26.9068C13.4008 26.8577 13.2225 26.7493 13.088 26.5961C12.9534 26.4429 12.8688 26.2522 12.8457 26.0496L12.2305 20.204C12.2214 20.1265 12.2079 20.0495 12.1898 19.9735L18.1567 16.5285C18.3864 16.3959 18.554 16.1775 18.6226 15.9213C18.6913 15.6651 18.6553 15.3922 18.5227 15.1625C18.3901 14.9328 18.1717 14.7652 17.9155 14.6965C17.6593 14.6279 17.3864 14.6638 17.1567 14.7964L11.1898 18.2414C11.133 18.1878 11.0732 18.1376 11.0105 18.0909L6.25571 14.6354C6.0918 14.514 5.96892 14.3455 5.90352 14.1523C5.83813 13.9591 5.83336 13.7506 5.88985 13.5547C5.94634 13.3587 6.06138 13.1847 6.21956 13.056C6.37775 12.9273 6.5715 12.85 6.77484 12.8345L22.3992 11.8967C22.583 11.8875 22.7658 11.9292 22.9275 12.0172C23.0891 12.1052 23.2233 12.2361 23.3153 12.3955C23.4074 12.5548 23.4536 12.7365 23.449 12.9205C23.4444 13.1045 23.3891 13.2837 23.2892 13.4382Z" fill="#0D0D0D"/>
</g>
<defs>
<clipPath id="clip0_899:46">
<rect width="24" height="24" fill="white" transform="translate(0 12) rotate(-30)"/>
</clipPath>
</defs>
</svg>
