<svg width="12" height="15" viewBox="0 0 12 15" fill="none" xmlns="http://www.w3.org/2000/svg">
<path d="M4.66667 11.4997C4.84348 11.4997 5.01305 11.4294 5.13807 11.3044C5.2631 11.1794 5.33333 11.0098 5.33333 10.833V6.83301C5.33333 6.6562 5.2631 6.48663 5.13807 6.3616C5.01305 6.23658 4.84348 6.16634 4.66667 6.16634C4.48986 6.16634 4.32029 6.23658 4.19526 6.3616C4.07024 6.48663 4 6.6562 4 6.83301V10.833C4 11.0098 4.07024 11.1794 4.19526 11.3044C4.32029 11.4294 4.48986 11.4997 4.66667 11.4997ZM11.3333 3.49967H8.66667V2.83301C8.66667 2.30257 8.45595 1.79387 8.08088 1.41879C7.70581 1.04372 7.1971 0.833008 6.66667 0.833008H5.33333C4.8029 0.833008 4.29419 1.04372 3.91912 1.41879C3.54405 1.79387 3.33333 2.30257 3.33333 2.83301V3.49967H0.666667C0.489856 3.49967 0.320286 3.56991 0.195262 3.69494C0.0702379 3.81996 0 3.98953 0 4.16634C0 4.34315 0.0702379 4.51272 0.195262 4.63775C0.320286 4.76277 0.489856 4.83301 0.666667 4.83301H1.33333V12.1663C1.33333 12.6968 1.54405 13.2055 1.91912 13.5806C2.29419 13.9556 2.8029 14.1663 3.33333 14.1663H8.66667C9.1971 14.1663 9.70581 13.9556 10.0809 13.5806C10.456 13.2055 10.6667 12.6968 10.6667 12.1663V4.83301H11.3333C11.5101 4.83301 11.6797 4.76277 11.8047 4.63775C11.9298 4.51272 12 4.34315 12 4.16634C12 3.98953 11.9298 3.81996 11.8047 3.69494C11.6797 3.56991 11.5101 3.49967 11.3333 3.49967ZM4.66667 2.83301C4.66667 2.6562 4.7369 2.48663 4.86193 2.3616C4.98695 2.23658 5.15652 2.16634 5.33333 2.16634H6.66667C6.84348 2.16634 7.01305 2.23658 7.13807 2.3616C7.2631 2.48663 7.33333 2.6562 7.33333 2.83301V3.49967H4.66667V2.83301ZM9.33333 12.1663C9.33333 12.3432 9.2631 12.5127 9.13807 12.6377C9.01305 12.7628 8.84348 12.833 8.66667 12.833H3.33333C3.15652 12.833 2.98695 12.7628 2.86193 12.6377C2.7369 12.5127 2.66667 12.3432 2.66667 12.1663V4.83301H9.33333V12.1663ZM7.33333 11.4997C7.51014 11.4997 7.67971 11.4294 7.80474 11.3044C7.92976 11.1794 8 11.0098 8 10.833V6.83301C8 6.6562 7.92976 6.48663 7.80474 6.3616C7.67971 6.23658 7.51014 6.16634 7.33333 6.16634C7.15652 6.16634 6.98695 6.23658 6.86193 6.3616C6.73691 6.48663 6.66667 6.6562 6.66667 6.83301V10.833C6.66667 11.0098 6.73691 11.1794 6.86193 11.3044C6.98695 11.4294 7.15652 11.4997 7.33333 11.4997Z" fill="#EB5757"/>
</svg>
