<svg width="14" height="15" viewBox="0 0 14 15" fill="none" xmlns="http://www.w3.org/2000/svg">
<path d="M2.33333 11.4996H5.16C5.24774 11.5001 5.33471 11.4833 5.41594 11.4501C5.49716 11.417 5.57104 11.3681 5.63333 11.3063L10.2467 6.6863L12.14 4.83297C12.2025 4.77099 12.2521 4.69726 12.2859 4.61602C12.3198 4.53478 12.3372 4.44764 12.3372 4.35963C12.3372 4.27163 12.3198 4.18449 12.2859 4.10325C12.2521 4.02201 12.2025 3.94828 12.14 3.8863L9.31333 1.0263C9.25136 0.963815 9.17762 0.914219 9.09639 0.880373C9.01515 0.846527 8.92801 0.829102 8.84 0.829102C8.75199 0.829102 8.66486 0.846527 8.58362 0.880373C8.50238 0.914219 8.42864 0.963815 8.36667 1.0263L6.48667 2.91297L1.86 7.53297C1.79821 7.59526 1.74933 7.66914 1.71615 7.75036C1.68298 7.83159 1.66616 7.91856 1.66667 8.0063V10.833C1.66667 11.0098 1.7369 11.1793 1.86193 11.3044C1.98695 11.4294 2.15652 11.4996 2.33333 11.4996ZM8.84 2.43963L10.7267 4.3263L9.78 5.27297L7.89333 3.3863L8.84 2.43963ZM3 8.27963L6.95333 4.3263L8.84 6.21297L4.88667 10.1663H3V8.27963ZM13 12.833H1C0.823189 12.833 0.653619 12.9032 0.528595 13.0282C0.403571 13.1533 0.333333 13.3228 0.333333 13.4996C0.333333 13.6764 0.403571 13.846 0.528595 13.971C0.653619 14.0961 0.823189 14.1663 1 14.1663H13C13.1768 14.1663 13.3464 14.0961 13.4714 13.971C13.5964 13.846 13.6667 13.6764 13.6667 13.4996C13.6667 13.3228 13.5964 13.1533 13.4714 13.0282C13.3464 12.9032 13.1768 12.833 13 12.833Z" fill="black"/>
</svg>
