<svg width="300" height="300" viewBox="0 0 300 300" fill="none" xmlns="http://www.w3.org/2000/svg">
<g clip-path="url(#clip0)">
<path fill-rule="evenodd" clip-rule="evenodd" d="M111.43 111.643H104.027C103.268 109.972 102.926 106.252 111.43 102C111.43 102 97.8389 102 90.8537 111.643H72.8213C70.1639 111.643 68 113.806 68 116.464V145.392C68 148.049 70.1639 150.213 72.8213 150.213H82.4639L72.8213 159.856V169.498H75.4028C73.7704 172.345 72.8213 175.648 72.8213 179.141C72.8213 186.278 76.6935 192.504 82.4639 195.844C85.3111 197.477 88.6139 198.426 92.1065 198.426C102.774 198.426 111.392 189.808 111.392 179.141C111.392 175.648 110.443 172.345 108.81 169.498C105.469 163.728 99.2435 159.856 92.1065 159.856H83.4509L93.0935 150.213H111.43C114.087 150.213 116.251 148.049 116.251 145.392V116.464C116.251 113.806 114.087 111.643 111.43 111.643ZM92.1065 169.536C97.4213 169.536 101.749 173.864 101.749 179.179C101.749 184.494 97.4213 188.821 92.1065 188.821C86.7917 188.821 82.4639 184.494 82.4639 179.179C82.4639 173.864 86.7917 169.536 92.1065 169.536ZM81.5148 137.23H78.6296C78.0981 137.23 77.6806 136.812 77.6806 136.281V125.651C77.6806 125.119 78.0981 124.702 78.6296 124.702H81.5148C82.0463 124.702 82.4639 125.119 82.4639 125.651V136.281C82.4639 136.774 82.0463 137.23 81.5148 137.23ZM94.5361 136.243C94.5361 136.774 94.1185 137.192 93.587 137.192H90.7019C90.1704 137.192 89.7528 136.774 89.7528 136.243V125.613C89.7528 125.081 90.1704 124.664 90.7019 124.664H93.587C94.1185 124.664 94.5361 125.081 94.5361 125.613V136.243ZM106.57 136.243C106.57 136.774 106.153 137.192 105.621 137.192H102.736C102.205 137.192 101.787 136.774 101.787 136.243V125.613C101.787 125.081 102.205 124.664 102.736 124.664H105.621C106.153 124.664 106.57 125.081 106.57 125.613V136.243Z" fill="white"/>
<path fill-rule="evenodd" clip-rule="evenodd" d="M198.251 159.894V169.536H126.843C123.654 169.536 121.072 166.955 121.072 163.766V111.643H130.715V157.957C130.715 159.02 131.588 159.894 132.651 159.894H198.251Z" fill="white"/>
<path fill-rule="evenodd" clip-rule="evenodd" d="M135.536 117.451V149.302C135.536 152.491 138.118 155.072 141.306 155.072H158.656C161.844 155.072 164.426 152.491 164.426 149.302V117.451C164.426 114.262 161.844 111.681 158.656 111.681H141.306C138.118 111.643 135.536 114.224 135.536 117.451ZM152.885 145.43H147.115C146.052 145.43 145.179 144.557 145.179 143.494V123.221C145.179 122.158 146.052 121.285 147.115 121.285H152.885C153.948 121.285 154.821 122.158 154.821 123.221V143.494C154.821 144.557 153.948 145.43 152.885 145.43Z" fill="white"/>
<path fill-rule="evenodd" clip-rule="evenodd" d="M169.285 117.451V149.302C169.285 152.491 171.867 155.072 175.056 155.072H192.405C195.594 155.072 198.175 152.491 198.175 149.302V117.451C198.175 114.262 195.594 111.681 192.405 111.681H175.056C171.867 111.643 169.285 114.224 169.285 117.451ZM186.672 145.43H180.902C179.839 145.43 178.966 144.557 178.966 143.494V123.221C178.966 122.158 179.839 121.285 180.902 121.285H186.672C187.735 121.285 188.608 122.158 188.608 123.221V143.494C188.57 144.557 187.735 145.43 186.672 145.43Z" fill="white"/>
<path fill-rule="evenodd" clip-rule="evenodd" d="M232 111.643V163.728C232 166.917 229.419 169.498 226.23 169.498H208.843C205.654 169.498 203.072 166.917 203.072 163.728V111.643H212.715V157.957C212.715 159.02 213.588 159.894 214.651 159.894H220.421C221.484 159.894 222.357 159.02 222.357 157.957V111.643H232Z" fill="white"/>
</g>
<defs>
<clipPath id="clip0">
<rect width="164" height="96.4639" fill="white" transform="translate(68 102)"/>
</clipPath>
</defs>
</svg>
