<svg width="152" height="152" viewBox="0 0 152 152" fill="none" xmlns="http://www.w3.org/2000/svg">
<g filter="url(#filter0_d)">
<rect x="20" y="16" width="112" height="112" rx="56" fill="white"/>
<path fill-rule="evenodd" clip-rule="evenodd" d="M87.1 48.8H82.6647C82.1931 47.7865 82.0024 45.5488 87.1 43C87.1 43 78.9318 43 74.7374 48.8H63.9C62.2945 48.8 61 50.1045 61 51.7V69.1C61 70.7055 62.2945 72 63.9 72H69.7L63.9 77.8V83.6H65.4554C64.4619 85.3059 63.9 87.2927 63.9 89.4C63.9 93.6948 66.228 97.4377 69.7 99.4446C71.4059 100.438 73.3927 101 75.5 101C81.9121 101 87.1 95.8121 87.1 89.4C87.1 87.2927 86.528 85.3059 85.5446 83.6C83.5478 80.128 79.7948 77.8 75.5 77.8H70.282L76.082 72H87.1C88.7055 72 90 70.7055 90 69.1V51.7C90 50.1045 88.7055 48.8 87.1 48.8ZM75.5 83.6C78.701 83.6 81.3 86.199 81.3 89.4C81.3 92.601 78.701 95.2 75.5 95.2C72.299 95.2 69.7 92.601 69.7 89.4C69.7 86.199 72.299 83.6 75.5 83.6ZM69.118 64.173H67.382C67.0609 64.173 66.8 63.9121 66.8 63.591V57.209C66.8 56.8879 67.0609 56.627 67.382 56.627H69.118C69.4391 56.627 69.7 56.8879 69.7 57.209V63.591C69.7 63.9121 69.4391 64.173 69.118 64.173ZM76.955 63.591C76.955 63.9121 76.6941 64.173 76.373 64.173H74.637C74.3159 64.173 74.055 63.9121 74.055 63.591V57.209C74.055 56.8879 74.3159 56.627 74.637 56.627H76.373C76.6941 56.627 76.955 56.8879 76.955 57.209V63.591ZM84.2 63.591C84.2 63.9121 83.9391 64.173 83.618 64.173H81.882C81.5609 64.173 81.3 63.9121 81.3 63.591V57.209C81.3 56.8879 81.5609 56.627 81.882 56.627H83.618C83.9391 56.627 84.2 56.8879 84.2 57.209V63.591Z" fill="#464BC8"/>
<path d="M47.8636 113.292C47.2312 114.22 47.4689 115.488 48.4209 116.084C54.732 120.032 61.8247 122.584 69.2212 123.556C77.2905 124.617 85.4961 123.769 93.178 121.081C100.86 118.392 107.803 113.938 113.45 108.077C119.096 102.215 123.288 95.1102 125.688 87.3333C128.088 79.5564 128.629 71.3248 127.267 63.3008C125.906 55.2768 122.68 47.6844 117.849 41.1344C113.018 34.5845 106.717 29.26 99.453 25.5893C92.7947 22.2246 85.4976 20.3355 78.0591 20.0408C76.937 19.9963 76.0258 20.9103 76.0252 22.0333C76.0246 23.1562 76.935 24.0625 78.0569 24.1107C84.8588 24.4029 91.5287 26.1411 97.6189 29.2188C104.315 32.6024 110.123 37.5105 114.576 43.5482C119.029 49.5859 122.003 56.5846 123.258 63.9811C124.513 71.3776 124.014 78.9655 121.802 86.1342C119.59 93.3029 115.726 99.8522 110.521 105.255C105.316 110.658 98.9157 114.764 91.8346 117.242C84.7535 119.721 77.1896 120.502 69.7513 119.524C62.9859 118.635 56.4963 116.312 50.7126 112.721C49.7586 112.128 48.4959 112.364 47.8636 113.292Z" fill="#6FCF97"/>
</g>
<defs>
<filter id="filter0_d" x="0" y="0" width="152" height="152" filterUnits="userSpaceOnUse" color-interpolation-filters="sRGB">
<feFlood flood-opacity="0" result="BackgroundImageFix"/>
<feColorMatrix in="SourceAlpha" type="matrix" values="0 0 0 0 0 0 0 0 0 0 0 0 0 0 0 0 0 0 127 0"/>
<feOffset dy="4"/>
<feGaussianBlur stdDeviation="10"/>
<feColorMatrix type="matrix" values="0 0 0 0 0.606935 0 0 0 0 0.612166 0 0 0 0 0.742949 0 0 0 0.15 0"/>
<feBlend mode="normal" in2="BackgroundImageFix" result="effect1_dropShadow"/>
<feBlend mode="normal" in="SourceGraphic" in2="effect1_dropShadow" result="shape"/>
</filter>
</defs>
</svg>
