<svg width="152" height="152" viewBox="0 0 152 152" fill="none" xmlns="http://www.w3.org/2000/svg">
<g filter="url(#filter0_d)">
<rect x="20" y="16" width="112" height="112" rx="56" fill="white"/>
<path fill-rule="evenodd" clip-rule="evenodd" d="M87.1 48.8H82.6647C82.1931 47.7865 82.0024 45.5488 87.1 43C87.1 43 78.9318 43 74.7374 48.8H63.9C62.2945 48.8 61 50.1045 61 51.7V69.1C61 70.7055 62.2945 72 63.9 72H69.7L63.9 77.8V83.6H65.4554C64.4619 85.3059 63.9 87.2927 63.9 89.4C63.9 93.6948 66.228 97.4377 69.7 99.4446C71.4059 100.438 73.3927 101 75.5 101C81.9121 101 87.1 95.8121 87.1 89.4C87.1 87.2927 86.528 85.3059 85.5446 83.6C83.5478 80.128 79.7948 77.8 75.5 77.8H70.282L76.082 72H87.1C88.7055 72 90 70.7055 90 69.1V51.7C90 50.1045 88.7055 48.8 87.1 48.8ZM75.5 83.6C78.701 83.6 81.3 86.199 81.3 89.4C81.3 92.601 78.701 95.2 75.5 95.2C72.299 95.2 69.7 92.601 69.7 89.4C69.7 86.199 72.299 83.6 75.5 83.6ZM69.118 64.173H67.382C67.0609 64.173 66.8 63.9121 66.8 63.591V57.209C66.8 56.8879 67.0609 56.627 67.382 56.627H69.118C69.4391 56.627 69.7 56.8879 69.7 57.209V63.591C69.7 63.9121 69.4391 64.173 69.118 64.173ZM76.955 63.591C76.955 63.9121 76.6941 64.173 76.373 64.173H74.637C74.3159 64.173 74.055 63.9121 74.055 63.591V57.209C74.055 56.8879 74.3159 56.627 74.637 56.627H76.373C76.6941 56.627 76.955 56.8879 76.955 57.209V63.591ZM84.2 63.591C84.2 63.9121 83.9391 64.173 83.618 64.173H81.882C81.5609 64.173 81.3 63.9121 81.3 63.591V57.209C81.3 56.8879 81.5609 56.627 81.882 56.627H83.618C83.9391 56.627 84.2 56.8879 84.2 57.209V63.591Z" fill="#464BC8"/>
<path d="M125.437 79.2534C126.549 79.4164 127.586 78.6481 127.705 77.5315C128.424 70.8143 127.827 64.0145 125.942 57.514C123.867 50.3618 120.28 43.7387 115.425 38.0927C110.569 32.4466 104.557 27.9095 97.7954 24.7881C91.6502 21.9512 85.0162 20.344 78.2671 20.0494C77.1452 20.0005 76.2304 20.9109 76.2253 22.0338C76.2203 23.1567 77.127 24.0667 78.2487 24.1193C84.4152 24.4089 90.4745 25.8874 96.091 28.4803C102.323 31.3575 107.865 35.5399 112.341 40.7443C116.818 45.9488 120.124 52.054 122.036 58.6468C123.759 64.588 124.314 70.8003 123.678 76.9408C123.562 78.0577 124.326 79.0903 125.437 79.2534Z" fill="#6FCF97"/>
</g>
<defs>
<filter id="filter0_d" x="0" y="0" width="152" height="152" filterUnits="userSpaceOnUse" color-interpolation-filters="sRGB">
<feFlood flood-opacity="0" result="BackgroundImageFix"/>
<feColorMatrix in="SourceAlpha" type="matrix" values="0 0 0 0 0 0 0 0 0 0 0 0 0 0 0 0 0 0 127 0"/>
<feOffset dy="4"/>
<feGaussianBlur stdDeviation="10"/>
<feColorMatrix type="matrix" values="0 0 0 0 0.606935 0 0 0 0 0.612166 0 0 0 0 0.742949 0 0 0 0.15 0"/>
<feBlend mode="normal" in2="BackgroundImageFix" result="effect1_dropShadow"/>
<feBlend mode="normal" in="SourceGraphic" in2="effect1_dropShadow" result="shape"/>
</filter>
</defs>
</svg>
