<svg width="48" height="96" viewBox="0 0 48 96" fill="none" xmlns="http://www.w3.org/2000/svg">
<path fill-rule="evenodd" clip-rule="evenodd" d="M43.2 9.6H35.8588C35.0782 7.92249 34.7626 4.21869 43.2 0C43.2 0 29.6803 0 22.7377 9.6H4.8C2.14256 9.6 0 11.7592 0 14.4V43.2C0 45.8574 2.14256 48 4.8 48H14.4L4.8 57.6V67.2H7.37439C5.7301 70.0235 4.8 73.3121 4.8 76.8C4.8 83.9087 8.65329 90.1038 14.4 93.4256C17.2235 95.0699 20.5121 96 24 96C34.6131 96 43.2 87.4131 43.2 76.8C43.2 73.3121 42.2533 70.0235 40.6256 67.2C37.3204 61.4533 31.1087 57.6 24 57.6H15.3633L24.9633 48H43.2C45.8574 48 48 45.8574 48 43.2V14.4C48 11.7592 45.8574 9.6 43.2 9.6ZM24 67.2C29.2983 67.2 33.6 71.5017 33.6 76.8C33.6 82.0983 29.2983 86.4 24 86.4C18.7017 86.4 14.4 82.0983 14.4 76.8C14.4 71.5017 18.7017 67.2 24 67.2ZM13.4367 35.045H10.5633C10.0318 35.045 9.6 34.6131 9.6 34.0817V23.5183C9.6 22.9869 10.0318 22.555 10.5633 22.555H13.4367C13.9682 22.555 14.4 22.9869 14.4 23.5183V34.0817C14.4 34.6131 13.9682 35.045 13.4367 35.045ZM26.4083 34.0817C26.4083 34.6131 25.9765 35.045 25.445 35.045H22.5716C22.0401 35.045 21.6083 34.6131 21.6083 34.0817V23.5183C21.6083 22.9869 22.0401 22.555 22.5716 22.555H25.445C25.9765 22.555 26.4083 22.9869 26.4083 23.5183V34.0817ZM38.4 34.0817C38.4 34.6131 37.9682 35.045 37.4367 35.045H34.5633C34.0318 35.045 33.6 34.6131 33.6 34.0817V23.5183C33.6 22.9869 34.0318 22.555 34.5633 22.555H37.4367C37.9682 22.555 38.4 22.9869 38.4 23.5183V34.0817Z" fill="white"/>
</svg>
