<svg width="16" height="17" viewBox="0 0 16 17" fill="none" xmlns="http://www.w3.org/2000/svg">
<path d="M11.7299 7.78825C12.7981 7.78825 13.6647 6.92231 13.6647 5.85409C13.6647 4.78587 12.7981 3.91992 11.7299 3.91992" stroke="#0D0D0D" stroke-width="1.5" stroke-linecap="round" stroke-linejoin="round"/>
<path d="M12.6194 9.89062C12.9384 9.91262 13.2555 9.95785 13.5678 10.0281C14.0017 10.1131 14.5236 10.2909 14.7094 10.6802C14.8279 10.9295 14.8279 11.2198 14.7094 11.4697C14.5242 11.859 14.0017 12.0362 13.5678 12.1255" stroke="#0D0D0D" stroke-width="1.5" stroke-linecap="round" stroke-linejoin="round"/>
<path d="M4.19329 7.78825C3.12507 7.78825 2.25851 6.92231 2.25851 5.85409C2.25851 4.78587 3.12507 3.91992 4.19329 3.91992" stroke="#0D0D0D" stroke-width="1.5" stroke-linecap="round" stroke-linejoin="round"/>
<path d="M3.30382 9.89062C2.98482 9.91262 2.66765 9.95785 2.35538 10.0281C1.92149 10.1131 1.3996 10.2909 1.21443 10.6802C1.09526 10.9295 1.09526 11.2198 1.21443 11.4697C1.39899 11.859 1.92149 12.0362 2.35538 12.1255" stroke="#200E32" stroke-width="1.5" stroke-linecap="round" stroke-linejoin="round"/>
<path fill-rule="evenodd" clip-rule="evenodd" d="M7.95846 10.3066C10.123 10.3066 11.9722 10.6342 11.9722 11.945C11.9722 13.2553 10.1352 13.595 7.95846 13.595C5.79329 13.595 3.94468 13.2675 3.94468 11.9566C3.94468 10.6458 5.78168 10.3066 7.95846 10.3066Z" stroke="#200E32" stroke-width="1.5" stroke-linecap="round" stroke-linejoin="round"/>
<path fill-rule="evenodd" clip-rule="evenodd" d="M7.95848 8.43694C6.53092 8.43694 5.38631 7.29233 5.38631 5.86416C5.38631 4.4366 6.53092 3.29199 7.95848 3.29199C9.38603 3.29199 10.5306 4.4366 10.5306 5.86416C10.5306 7.29233 9.38603 8.43694 7.95848 8.43694Z" stroke="#200E32" stroke-width="1.5" stroke-linecap="round" stroke-linejoin="round"/>
</svg>
