<svg width="32" height="32" viewBox="0 0 32 32" fill="none" xmlns="http://www.w3.org/2000/svg">
<rect width="32" height="32" rx="8" fill="#27AE60" fill-opacity="0.08"/>
<path fill-rule="evenodd" clip-rule="evenodd" d="M7.66666 19.334C7.20642 19.334 6.83333 19.7071 6.83333 20.1673C6.83333 20.6276 7.20642 21.0007 7.66666 21.0007H16.8333C17.2936 21.0007 17.6667 20.6276 17.6667 20.1673C17.6667 19.7071 17.2936 19.334 16.8333 19.334H7.66666ZM21.8333 19.334C21.3731 19.334 21 19.7071 21 20.1673C21 20.6276 21.3731 21.0007 21.8333 21.0007H24.3333C24.7936 21.0007 25.1667 20.6276 25.1667 20.1673C25.1667 19.7071 24.7936 19.334 24.3333 19.334H21.8333Z" fill="#27AE60"/>
<path fill-rule="evenodd" clip-rule="evenodd" d="M19.3333 21.834C20.2538 21.834 21 21.0878 21 20.1673C21 19.2468 20.2538 18.5007 19.3333 18.5007C18.4129 18.5007 17.6667 19.2468 17.6667 20.1673C17.6667 21.0878 18.4129 21.834 19.3333 21.834ZM19.3333 23.5007C21.1743 23.5007 22.6667 22.0083 22.6667 20.1673C22.6667 18.3264 21.1743 16.834 19.3333 16.834C17.4924 16.834 16 18.3264 16 20.1673C16 22.0083 17.4924 23.5007 19.3333 23.5007Z" fill="#27AE60"/>
<path fill-rule="evenodd" clip-rule="evenodd" d="M7.66666 11C7.20642 11 6.83333 11.3731 6.83333 11.8333C6.83333 12.2936 7.20642 12.6667 7.66666 12.6667H10.1667C10.6269 12.6667 11 12.2936 11 11.8333C11 11.3731 10.6269 11 10.1667 11H7.66666ZM15.1667 11C14.7064 11 14.3333 11.3731 14.3333 11.8333C14.3333 12.2936 14.7064 12.6667 15.1667 12.6667H24.3333C24.7936 12.6667 25.1667 12.2936 25.1667 11.8333C25.1667 11.3731 24.7936 11 24.3333 11H15.1667Z" fill="#27AE60"/>
<path fill-rule="evenodd" clip-rule="evenodd" d="M12.6667 13.5C13.5871 13.5 14.3333 12.7538 14.3333 11.8333C14.3333 10.9129 13.5871 10.1667 12.6667 10.1667C11.7462 10.1667 11 10.9129 11 11.8333C11 12.7538 11.7462 13.5 12.6667 13.5ZM12.6667 15.1667C14.5076 15.1667 16 13.6743 16 11.8333C16 9.99238 14.5076 8.5 12.6667 8.5C10.8257 8.5 9.33333 9.99238 9.33333 11.8333C9.33333 13.6743 10.8257 15.1667 12.6667 15.1667Z" fill="#27AE60"/>
</svg>
