<svg width="32" height="32" viewBox="0 0 32 32" fill="none" xmlns="http://www.w3.org/2000/svg">
<rect width="32" height="32" rx="8" fill="#2F80ED" fill-opacity="0.08"/>
<path fill-rule="evenodd" clip-rule="evenodd" d="M21.5892 13.3296C21.5892 14.3762 21.8659 14.9931 22.4746 15.704C22.9359 16.2277 23.0833 16.9 23.0833 17.6294C23.0833 18.3579 22.844 19.0495 22.3644 19.611C21.7367 20.2841 20.8513 20.7138 19.9477 20.7885C18.6383 20.9001 17.3281 20.9941 16.0004 20.9941C14.672 20.9941 13.3625 20.9379 12.0531 20.7885C11.1487 20.7138 10.2634 20.2841 9.63639 19.611C9.15685 19.0495 8.91667 18.3579 8.91667 17.6294C8.91667 16.9 9.06492 16.2277 9.52541 15.704C10.1532 14.9931 10.4116 14.3762 10.4116 13.3296V12.9746C10.4116 11.573 10.7611 10.6564 11.4808 9.75923C12.5509 8.45076 14.2661 7.66602 15.9632 7.66602H16.0377C17.7711 7.66602 19.5419 8.48853 20.5937 9.85324C21.2762 10.732 21.5892 11.6099 21.5892 12.9746V13.3296ZM13.5614 22.7167C13.5614 22.2971 13.9465 22.1049 14.3026 22.0226C14.7192 21.9345 17.2577 21.9345 17.6743 22.0226C18.0305 22.1049 18.4156 22.2971 18.4156 22.7167C18.3949 23.1162 18.1605 23.4704 17.8367 23.6953C17.4167 24.0227 16.924 24.23 16.4088 24.3047C16.1239 24.3416 15.844 24.3424 15.569 24.3047C15.053 24.23 14.5602 24.0227 14.1411 23.6945C13.8165 23.4704 13.5821 23.1162 13.5614 22.7167Z" fill="#2F80ED"/>
</svg>
