<svg width="32" height="32" viewBox="0 0 32 32" fill="none" xmlns="http://www.w3.org/2000/svg">
<rect width="32" height="32" rx="8" fill="#464BC8" fill-opacity="0.08"/>
<path fill-rule="evenodd" clip-rule="evenodd" d="M20.6023 12.1627V13.4405C22.0376 13.8885 23.0833 15.1878 23.0833 16.7397V20.8538C23.0833 22.775 21.4905 24.3327 19.5269 24.3327H12.474C10.5095 24.3327 8.91667 22.775 8.91667 20.8538V16.7397C8.91667 15.1878 9.96329 13.8885 11.3977 13.4405V12.1627C11.4062 9.67834 13.4639 7.66602 15.9873 7.66602C18.5446 7.66602 20.6023 9.67834 20.6023 12.1627ZM16.0042 9.11522C17.7232 9.11522 19.1204 10.4816 19.1204 12.1627V13.2608H12.8796V12.1461C12.8881 10.4733 14.2853 9.11522 16.0042 9.11522ZM16.7409 19.7118C16.7409 20.1176 16.4107 20.4405 15.9958 20.4405C15.5893 20.4405 15.2591 20.1176 15.2591 19.7118V17.8734C15.2591 17.4759 15.5893 17.1529 15.9958 17.1529C16.4107 17.1529 16.7409 17.4759 16.7409 17.8734V19.7118Z" fill="#464BC8"/>
</svg>
